<svg id="svg" version="1.1" xmlns="http://www.w3.org/2000/svg" xmlns:xlink="http://www.w3.org/1999/xlink" width="400" height="133.24450366422386" viewBox="0, 0, 400,133.24450366422386"><g id="svgg"><path id="path0" d="M11.778 11.111 C 11.717 11.172,11.667 33.110,11.667 59.861 L 11.667 108.500 200.000 108.500 L 388.334 108.500 388.292 59.792 L 388.250 11.083 200.070 11.042 C 96.570 11.019,11.839 11.050,11.778 11.111 M386.500 59.750 L 386.500 106.667 200.000 106.667 L 13.500 106.667 13.500 59.750 L 13.500 12.833 200.000 12.833 L 386.500 12.833 386.500 59.750 M16.048 116.467 C 15.894 116.564,15.854 118.041,15.881 122.589 L 15.917 128.583 20.125 128.628 L 24.333 128.672 24.333 127.913 L 24.333 127.154 20.958 127.202 L 17.583 127.250 17.630 122.167 C 17.682 116.545,17.650 116.331,16.764 116.336 C 16.481 116.337,16.159 116.396,16.048 116.467 M29.611 116.444 C 29.550 116.506,29.500 119.285,29.500 122.620 L 29.500 128.685 30.292 128.634 L 31.083 128.583 31.127 122.785 C 31.156 118.977,31.111 116.874,30.996 116.660 C 30.824 116.338,29.867 116.189,29.611 116.444 M42.000 116.495 C 42.000 116.600,41.925 116.640,41.833 116.583 C 41.389 116.308,38.333 118.464,38.333 119.053 C 38.333 119.167,38.193 119.361,38.021 119.485 C 37.835 119.619,37.742 119.836,37.791 120.021 C 37.836 120.193,37.798 120.333,37.708 120.333 C 37.398 120.333,37.063 123.583,37.354 123.763 C 37.434 123.813,37.500 124.026,37.500 124.236 C 37.500 124.670,38.361 126.365,38.846 126.885 C 39.022 127.075,39.167 127.288,39.167 127.360 C 39.167 127.431,39.272 127.449,39.402 127.399 C 39.542 127.345,39.680 127.446,39.745 127.651 C 39.805 127.839,39.905 127.978,39.968 127.959 C 40.135 127.909,41.665 128.565,41.666 128.686 C 41.666 128.743,41.892 128.763,42.167 128.731 C 42.442 128.699,42.667 128.731,42.667 128.802 C 42.667 128.992,44.430 128.907,45.618 128.659 C 46.186 128.541,46.613 128.382,46.566 128.305 C 46.519 128.229,46.635 128.167,46.823 128.167 C 47.012 128.167,47.167 128.087,47.167 127.990 C 47.167 127.893,47.228 127.852,47.303 127.898 C 47.378 127.944,47.545 127.836,47.673 127.658 C 47.802 127.479,48.003 127.333,48.120 127.333 C 48.442 127.333,48.376 126.876,48.000 126.500 C 47.657 126.157,46.801 126.033,46.875 126.338 C 46.912 126.490,46.546 126.740,45.618 127.198 C 45.454 127.278,45.253 127.303,45.171 127.253 C 45.090 127.202,44.976 127.237,44.918 127.331 C 44.791 127.537,42.889 127.558,42.764 127.355 C 42.714 127.276,42.371 127.162,42.000 127.103 C 41.223 126.978,39.333 125.294,39.333 124.725 C 39.333 124.546,39.249 124.316,39.147 124.213 C 38.866 123.932,38.859 121.190,39.139 121.017 C 39.262 120.941,39.342 120.850,39.317 120.815 C 39.217 120.671,39.661 119.667,39.825 119.667 C 39.921 119.667,39.981 119.601,39.958 119.520 C 39.880 119.247,41.081 118.339,41.667 118.229 C 41.987 118.168,42.299 118.043,42.359 117.950 C 42.567 117.629,45.204 117.759,45.797 118.120 C 46.091 118.299,46.276 118.507,46.208 118.583 C 46.139 118.658,46.178 118.666,46.293 118.600 C 46.408 118.533,46.709 118.626,46.961 118.806 C 47.413 119.128,48.333 118.774,48.333 118.278 C 48.333 117.914,46.722 116.788,45.833 116.530 C 45.183 116.341,42.000 116.312,42.000 116.495 M54.333 122.500 L 54.333 128.667 58.583 128.667 C 60.921 128.667,62.890 128.685,62.958 128.708 C 63.027 128.731,63.107 128.506,63.136 128.207 C 63.232 127.208,63.077 127.167,59.262 127.167 L 55.833 127.167 55.833 125.170 L 55.833 123.174 58.958 123.129 L 62.083 123.083 62.135 122.458 C 62.170 122.030,62.118 121.831,61.968 121.826 C 61.848 121.822,60.524 121.825,59.026 121.833 C 55.652 121.851,55.833 121.975,55.833 119.646 L 55.833 117.833 59.153 117.833 C 62.809 117.833,63.000 117.804,63.000 117.246 C 63.000 116.302,63.151 116.333,58.566 116.333 L 54.333 116.333 54.333 122.500 M69.383 116.441 C 69.154 116.534,69.060 128.658,69.288 128.677 C 69.359 128.683,69.771 128.702,70.203 128.719 L 70.990 128.750 70.953 124.050 C 70.933 121.465,70.960 119.402,71.012 119.467 C 71.677 120.280,72.167 121.006,72.167 121.177 C 72.167 121.293,72.214 121.341,72.273 121.283 C 72.331 121.225,72.746 121.662,73.195 122.255 C 73.644 122.848,74.084 123.333,74.172 123.333 C 74.261 123.333,74.333 123.433,74.333 123.554 C 74.333 123.676,74.526 123.956,74.760 124.176 C 74.995 124.397,75.350 124.841,75.549 125.164 C 75.889 125.715,76.325 126.276,76.784 126.752 C 76.894 126.867,76.938 127.007,76.881 127.063 C 76.824 127.120,76.865 127.167,76.972 127.167 C 77.079 127.167,77.167 127.249,77.167 127.350 C 77.167 128.012,79.218 129.049,79.657 128.609 C 79.922 128.345,79.899 116.799,79.633 116.533 C 79.325 116.225,78.223 116.279,78.096 116.610 C 78.038 116.762,77.997 118.869,78.006 121.294 C 78.014 123.718,77.967 125.750,77.900 125.809 C 77.834 125.868,77.831 125.828,77.893 125.719 C 77.956 125.610,77.904 125.460,77.777 125.385 C 77.528 125.238,76.092 123.509,75.983 123.225 C 75.912 123.037,74.935 121.810,74.458 121.307 C 74.298 121.138,74.167 120.939,74.167 120.865 C 74.167 120.790,73.942 120.513,73.667 120.250 C 73.392 119.987,73.167 119.700,73.167 119.613 C 73.167 119.527,73.005 119.316,72.808 119.145 C 72.610 118.973,72.501 118.833,72.564 118.833 C 72.627 118.833,72.413 118.601,72.089 118.316 C 71.765 118.032,71.500 117.739,71.500 117.665 C 71.500 116.980,70.079 116.158,69.383 116.441 M88.807 116.413 C 88.747 116.475,88.594 116.540,88.467 116.559 C 87.175 116.748,85.968 118.403,86.017 119.918 C 86.037 120.513,86.116 121.000,86.193 121.000 C 86.270 121.000,86.333 121.090,86.333 121.199 C 86.333 121.473,87.179 122.333,87.448 122.333 C 87.568 122.333,87.667 122.408,87.667 122.500 C 87.667 122.592,87.723 122.654,87.792 122.639 C 88.097 122.570,89.167 122.888,89.167 123.046 C 89.167 123.143,89.214 123.175,89.271 123.118 C 89.329 123.060,89.610 123.111,89.896 123.230 C 90.182 123.349,90.504 123.417,90.610 123.381 C 90.716 123.345,90.852 123.395,90.911 123.491 C 90.971 123.588,91.198 123.667,91.417 123.667 C 91.635 123.667,91.861 123.743,91.918 123.836 C 91.976 123.929,92.083 123.968,92.156 123.923 C 92.382 123.783,93.423 124.919,93.460 125.346 C 93.502 125.823,93.007 126.833,92.733 126.833 C 92.627 126.833,92.448 126.945,92.335 127.081 C 92.222 127.218,92.062 127.289,91.981 127.238 C 91.900 127.188,91.833 127.216,91.833 127.301 C 91.833 127.385,91.189 127.469,90.401 127.486 C 89.319 127.510,89.000 127.469,89.094 127.316 C 89.171 127.191,89.148 127.158,89.033 127.230 C 88.931 127.292,88.563 127.218,88.216 127.064 C 87.868 126.910,87.491 126.765,87.378 126.741 C 87.266 126.717,87.054 126.578,86.908 126.432 C 86.474 125.998,86.073 126.107,85.898 126.708 C 85.763 127.172,85.795 127.303,86.120 127.619 C 86.329 127.822,86.500 127.955,86.500 127.914 C 86.500 127.873,86.830 128.024,87.233 128.249 C 87.637 128.475,88.218 128.674,88.525 128.692 C 88.832 128.710,89.158 128.765,89.250 128.815 C 89.509 128.955,91.230 128.966,91.417 128.829 C 91.557 128.725,92.064 128.619,93.118 128.472 C 93.228 128.457,93.287 128.393,93.247 128.329 C 93.208 128.266,93.438 128.073,93.758 127.901 C 94.622 127.436,95.557 124.333,94.833 124.333 C 94.742 124.333,94.667 124.224,94.667 124.091 C 94.667 123.685,93.266 122.553,92.583 122.407 C 92.492 122.388,92.079 122.276,91.667 122.158 C 91.254 122.040,90.842 121.926,90.750 121.904 C 90.658 121.882,90.267 121.791,89.880 121.701 C 89.040 121.506,87.622 120.708,87.749 120.502 C 87.798 120.422,87.763 120.309,87.669 120.252 C 87.285 120.014,87.821 118.333,88.281 118.333 C 88.401 118.333,88.500 118.246,88.500 118.139 C 88.500 118.032,88.543 117.987,88.595 118.040 C 88.647 118.092,88.867 118.043,89.084 117.930 C 89.884 117.515,92.485 117.774,93.458 118.365 C 93.979 118.681,94.004 118.682,94.113 118.389 C 94.175 118.221,94.295 118.036,94.381 117.979 C 94.730 117.745,94.283 117.186,93.453 116.819 C 92.584 116.435,89.086 116.129,88.807 116.413 M101.000 122.493 L 101.000 128.667 105.417 128.667 L 109.833 128.667 109.833 128.192 C 109.833 127.238,109.563 127.167,105.945 127.167 L 102.667 127.167 102.667 125.167 L 102.667 123.167 105.760 123.167 L 108.853 123.167 108.802 122.542 L 108.750 121.917 105.708 121.871 L 102.667 121.826 102.667 119.833 L 102.667 117.840 106.125 117.795 L 109.583 117.750 109.583 117.083 L 109.583 116.417 105.292 116.368 L 101.000 116.319 101.000 122.493 M116.083 116.458 C 115.915 116.585,115.832 128.665,116.000 128.668 C 118.646 128.725,122.661 128.690,122.792 128.609 C 122.890 128.548,123.164 128.483,123.402 128.463 C 123.639 128.443,123.833 128.377,123.833 128.315 C 123.833 128.253,124.022 128.155,124.253 128.098 C 124.914 127.932,126.391 126.606,126.581 126.008 C 126.640 125.820,126.759 125.667,126.845 125.667 C 126.930 125.667,127.000 125.573,127.001 125.458 C 127.002 125.344,127.116 125.032,127.255 124.766 C 127.394 124.499,127.515 123.899,127.525 123.432 C 127.535 122.965,127.607 122.542,127.686 122.491 C 127.765 122.441,127.758 122.179,127.670 121.908 C 127.583 121.638,127.417 121.060,127.303 120.625 C 127.188 120.190,127.027 119.833,126.946 119.833 C 126.864 119.833,126.840 119.723,126.892 119.588 C 126.944 119.453,126.872 119.278,126.732 119.200 C 126.592 119.122,126.350 118.862,126.193 118.624 C 126.037 118.385,125.632 117.970,125.293 117.701 C 124.954 117.432,124.731 117.152,124.797 117.079 C 124.863 117.006,124.835 116.993,124.735 117.050 C 124.635 117.107,124.042 116.975,123.417 116.756 C 122.256 116.350,116.535 116.118,116.083 116.458 M141.751 116.875 C 141.698 117.173,141.675 119.958,141.702 123.064 L 141.750 128.712 142.458 128.731 L 143.167 128.750 143.170 124.167 C 143.174 119.160,143.191 119.102,144.084 120.951 C 144.226 121.245,144.415 121.531,144.504 121.586 C 144.594 121.641,144.667 121.828,144.667 122.002 C 144.667 122.175,144.760 122.377,144.875 122.450 C 145.068 122.574,145.279 122.915,145.999 124.270 C 146.151 124.557,146.439 124.998,146.638 125.251 C 146.837 125.504,147.000 125.852,147.000 126.022 C 147.000 126.193,147.074 126.333,147.163 126.333 C 147.253 126.333,147.372 126.513,147.427 126.733 C 147.631 127.544,149.000 127.284,149.000 126.435 C 149.000 126.277,149.075 126.193,149.167 126.250 C 149.258 126.307,149.333 126.199,149.333 126.010 C 149.333 125.821,149.390 125.667,149.459 125.667 C 149.527 125.667,149.796 125.217,150.056 124.667 C 150.315 124.117,150.629 123.611,150.752 123.542 C 150.875 123.473,150.991 123.342,151.009 123.250 C 151.109 122.745,151.903 121.497,152.209 121.361 C 152.279 121.330,152.294 121.238,152.244 121.157 C 152.160 121.022,152.594 120.196,152.852 120.000 C 152.912 119.954,152.999 119.767,153.045 119.583 C 153.091 119.400,153.137 121.369,153.147 123.958 C 153.160 126.961,153.227 128.673,153.333 128.683 C 153.425 128.692,153.688 128.700,153.917 128.700 C 154.146 128.700,154.408 128.692,154.500 128.683 C 154.608 128.673,154.667 126.518,154.667 122.587 L 154.667 116.506 154.263 116.405 C 153.590 116.236,153.293 116.386,152.916 117.083 C 152.236 118.341,151.800 119.000,151.650 119.000 C 151.568 119.000,151.500 119.094,151.500 119.208 C 151.499 119.448,150.600 121.207,150.148 121.852 C 149.980 122.092,149.891 122.335,149.949 122.394 C 150.008 122.452,149.977 122.500,149.881 122.500 C 149.785 122.500,149.499 122.910,149.245 123.411 C 148.992 123.913,148.709 124.276,148.616 124.219 C 148.524 124.162,148.491 124.184,148.543 124.268 C 148.595 124.352,148.546 124.592,148.434 124.800 C 148.237 125.169,146.817 123.242,146.958 122.797 C 146.981 122.725,146.937 122.667,146.860 122.667 C 146.782 122.667,146.576 122.387,146.401 122.046 C 146.226 121.705,145.950 121.276,145.788 121.094 C 145.625 120.911,145.524 120.679,145.563 120.577 C 145.602 120.476,145.488 120.302,145.310 120.191 C 145.132 120.080,145.028 119.923,145.078 119.842 C 145.128 119.761,145.105 119.670,145.027 119.639 C 144.950 119.608,144.457 118.852,143.933 117.958 C 142.832 116.081,141.971 115.653,141.751 116.875 M165.367 116.533 C 165.257 116.643,165.167 116.831,165.167 116.950 C 165.167 117.069,165.092 117.167,165.000 117.167 C 164.908 117.167,164.833 117.307,164.833 117.480 C 164.833 117.652,164.719 117.887,164.579 118.003 C 164.440 118.119,164.359 118.248,164.400 118.289 C 164.485 118.374,163.873 119.864,163.698 119.997 C 163.571 120.093,162.894 121.616,162.605 122.458 C 162.502 122.756,162.368 123.000,162.306 123.000 C 162.244 123.000,162.144 123.225,162.083 123.500 C 162.023 123.775,161.904 124.000,161.820 124.000 C 161.736 124.000,161.682 124.056,161.701 124.125 C 161.720 124.194,161.607 124.490,161.451 124.783 C 161.295 125.077,161.167 125.409,161.167 125.521 C 161.167 125.633,160.853 126.355,160.470 127.125 C 159.694 128.683,159.722 128.788,160.893 128.695 C 161.455 128.650,161.621 128.576,161.554 128.401 C 161.505 128.272,161.535 128.167,161.622 128.167 C 161.708 128.167,161.919 127.754,162.091 127.250 C 162.262 126.746,162.462 126.333,162.535 126.333 C 162.607 126.333,162.667 126.144,162.667 125.913 L 162.667 125.493 166.024 125.538 C 168.806 125.576,169.403 125.626,169.513 125.833 C 169.665 126.120,170.371 127.713,170.622 128.336 C 170.866 128.941,172.310 128.867,172.273 128.251 C 172.260 128.039,172.194 127.900,172.125 127.942 C 172.056 127.985,172.000 127.905,172.000 127.765 C 172.000 127.625,171.851 127.245,171.670 126.922 C 171.488 126.598,171.370 126.333,171.409 126.333 C 171.447 126.333,171.113 125.612,170.665 124.730 C 170.217 123.848,169.805 122.916,169.748 122.658 C 169.692 122.401,169.542 122.104,169.416 121.999 C 169.290 121.895,169.232 121.690,169.288 121.544 C 169.354 121.373,169.323 121.320,169.203 121.394 C 169.085 121.467,168.977 121.295,168.907 120.921 C 168.846 120.598,168.735 120.333,168.659 120.333 C 168.544 120.333,168.243 119.665,168.304 119.544 C 168.315 119.522,168.026 118.907,167.662 118.178 C 167.298 117.448,167.000 116.734,167.000 116.592 C 167.000 116.272,165.676 116.224,165.367 116.533 M179.542 116.524 C 179.427 116.639,179.333 116.679,179.333 116.612 C 179.333 116.380,178.344 117.006,177.758 117.609 C 177.433 117.944,177.167 118.352,177.167 118.516 C 177.167 118.680,177.092 118.860,177.000 118.917 C 176.908 118.973,176.833 119.465,176.833 120.010 C 176.833 120.559,176.908 121.000,177.000 121.000 C 177.092 121.000,177.167 121.112,177.167 121.250 C 177.167 121.388,177.246 121.500,177.343 121.500 C 177.440 121.500,177.481 121.563,177.433 121.640 C 177.257 121.925,180.048 123.173,181.417 123.420 C 183.402 123.778,184.333 124.452,184.333 125.530 C 184.333 126.313,183.132 127.538,182.654 127.242 C 182.569 127.190,182.500 127.226,182.500 127.323 C 182.500 127.609,180.344 127.522,179.367 127.198 C 178.882 127.036,178.544 126.839,178.617 126.759 C 178.690 126.679,178.670 126.659,178.572 126.715 C 178.473 126.770,178.153 126.670,177.859 126.491 C 177.133 126.049,176.939 126.081,176.714 126.677 C 176.490 127.270,176.817 127.729,177.680 128.030 C 177.948 128.123,178.167 128.260,178.167 128.334 C 178.167 128.459,179.760 128.768,180.042 128.698 C 180.110 128.681,180.167 128.723,180.167 128.792 C 180.167 129.235,183.696 128.669,184.330 128.125 C 184.517 127.965,184.726 127.831,184.794 127.827 C 185.438 127.795,186.303 124.333,185.667 124.333 C 185.575 124.333,185.500 124.224,185.500 124.091 C 185.500 123.873,185.140 123.463,184.432 122.875 C 184.294 122.760,184.061 122.667,183.914 122.667 C 183.767 122.667,183.693 122.592,183.750 122.500 C 183.808 122.406,183.672 122.333,183.437 122.333 C 183.209 122.333,182.811 122.252,182.553 122.152 C 182.094 121.974,181.938 121.936,180.917 121.746 C 179.926 121.562,178.847 120.935,178.586 120.391 C 178.295 119.787,178.259 119.333,178.500 119.333 C 178.592 119.333,178.667 119.139,178.667 118.901 C 178.667 118.609,178.775 118.441,179.000 118.382 C 179.183 118.334,179.333 118.232,179.333 118.155 C 179.333 117.560,183.297 117.714,184.180 118.343 C 184.766 118.760,184.762 118.761,185.073 118.137 C 185.331 117.619,185.282 116.909,185.000 117.083 C 184.842 117.181,184.000 116.839,184.000 116.676 C 184.000 116.389,179.818 116.247,179.542 116.524 M193.378 116.587 C 193.211 116.705,192.889 116.828,192.662 116.863 C 192.435 116.897,192.269 117.017,192.292 117.129 C 192.315 117.241,192.221 117.333,192.083 117.333 C 191.946 117.333,191.833 117.418,191.833 117.522 C 191.833 117.626,191.675 117.848,191.481 118.016 C 190.539 118.834,191.214 122.333,192.314 122.333 C 192.395 122.333,192.677 122.445,192.939 122.582 C 193.202 122.719,193.548 122.832,193.708 122.832 C 193.869 122.833,194.000 122.908,194.000 123.000 C 194.000 123.092,194.250 123.167,194.556 123.167 C 194.861 123.167,195.167 123.223,195.236 123.292 C 195.305 123.360,195.411 123.424,195.472 123.433 C 196.285 123.552,197.000 123.731,197.000 123.814 C 197.000 123.872,197.235 124.023,197.522 124.150 C 197.809 124.277,198.080 124.520,198.125 124.690 C 198.169 124.861,198.274 125.000,198.358 125.000 C 198.528 125.000,198.469 125.754,198.284 125.938 C 198.220 126.003,198.167 126.197,198.167 126.371 C 198.167 126.544,198.092 126.640,198.000 126.583 C 197.908 126.527,197.833 126.546,197.833 126.626 C 197.833 126.706,197.542 126.936,197.186 127.136 C 196.490 127.527,194.000 127.681,194.000 127.333 C 194.000 127.242,193.775 127.167,193.500 127.167 C 193.225 127.167,193.000 127.087,193.000 126.990 C 193.000 126.893,192.925 126.860,192.833 126.917 C 192.742 126.973,192.667 126.946,192.667 126.856 C 192.667 126.767,192.442 126.644,192.167 126.583 C 191.892 126.523,191.667 126.404,191.667 126.320 C 191.667 125.687,190.875 126.361,190.771 127.083 C 190.735 127.329,191.498 127.993,191.945 128.105 C 192.159 128.159,192.333 128.278,192.333 128.369 C 192.333 128.461,192.443 128.493,192.578 128.442 C 192.713 128.390,192.867 128.420,192.921 128.507 C 192.975 128.595,193.236 128.667,193.500 128.667 C 193.764 128.667,194.019 128.729,194.066 128.805 C 194.284 129.158,197.845 128.684,198.346 128.235 C 198.491 128.106,198.665 128.000,198.733 128.000 C 198.866 128.000,199.402 127.503,199.439 127.345 C 199.554 126.859,199.733 126.500,199.862 126.500 C 199.947 126.500,200.002 126.013,199.983 125.417 C 199.963 124.821,199.884 124.333,199.807 124.333 C 199.730 124.333,199.667 124.258,199.667 124.165 C 199.667 123.351,197.071 121.962,195.113 121.729 C 194.730 121.683,194.392 121.576,194.361 121.490 C 194.331 121.404,194.199 121.333,194.069 121.333 C 193.940 121.333,193.833 121.265,193.833 121.182 C 193.833 121.099,193.696 121.067,193.527 121.111 C 193.326 121.164,193.125 121.044,192.940 120.762 C 192.559 120.181,192.395 119.333,192.664 119.333 C 192.777 119.333,192.829 119.229,192.780 119.102 C 192.412 118.142,195.237 117.375,197.116 117.924 C 197.501 118.037,197.857 118.087,197.908 118.037 C 197.959 117.986,198.000 118.023,198.000 118.119 C 198.000 118.216,198.131 118.332,198.292 118.378 C 198.452 118.424,198.718 118.517,198.882 118.585 C 199.046 118.652,199.164 118.642,199.144 118.562 C 199.125 118.482,199.210 118.208,199.334 117.953 C 199.557 117.492,199.217 117.010,198.584 116.893 C 198.492 116.876,198.079 116.740,197.667 116.590 C 196.748 116.258,193.852 116.256,193.378 116.587 M209.631 116.617 C 209.316 116.969,208.334 118.830,208.332 119.079 C 208.332 119.173,208.032 119.850,207.667 120.583 C 207.301 121.317,207.002 122.015,207.001 122.135 C 207.000 122.255,206.926 122.307,206.835 122.251 C 206.743 122.194,206.711 122.256,206.763 122.391 C 206.814 122.524,206.776 122.682,206.678 122.743 C 206.580 122.803,206.500 122.999,206.500 123.177 C 206.500 123.354,206.425 123.500,206.333 123.500 C 206.242 123.500,206.167 123.608,206.167 123.740 C 206.167 123.873,206.010 124.246,205.819 124.570 C 205.628 124.894,205.455 125.254,205.434 125.371 C 205.366 125.756,205.124 126.415,205.019 126.500 C 204.799 126.679,203.990 128.546,204.090 128.645 C 204.675 129.229,206.015 128.405,206.255 127.313 C 206.312 127.049,206.421 126.833,206.495 126.833 C 206.569 126.833,206.677 126.578,206.736 126.266 C 206.879 125.505,206.905 125.500,210.496 125.500 L 213.631 125.500 213.743 125.948 C 213.805 126.195,214.001 126.600,214.178 126.849 C 214.355 127.098,214.500 127.394,214.500 127.506 C 214.500 128.201,215.142 128.754,215.880 128.696 C 216.546 128.643,216.960 127.833,216.321 127.833 C 216.245 127.833,216.133 127.571,216.072 127.250 C 216.012 126.929,215.911 126.667,215.847 126.667 C 215.713 126.667,215.167 125.484,215.167 125.194 C 215.167 125.087,215.092 125.000,215.000 125.000 C 214.908 125.000,214.833 124.890,214.833 124.755 C 214.833 124.620,214.666 124.190,214.462 123.798 C 214.258 123.407,214.076 123.011,214.057 122.918 C 213.971 122.491,213.563 121.561,213.373 121.362 C 213.258 121.240,213.206 121.071,213.258 120.987 C 213.310 120.902,213.286 120.833,213.203 120.833 C 213.015 120.833,212.635 120.020,212.742 119.846 C 212.786 119.775,212.674 119.559,212.494 119.366 C 212.314 119.172,212.167 118.935,212.167 118.839 C 212.167 118.743,211.969 118.271,211.728 117.790 C 211.487 117.310,211.236 116.804,211.170 116.667 C 210.988 116.289,209.955 116.255,209.631 116.617 M224.667 116.637 C 224.254 116.791,223.842 116.974,223.750 117.045 C 223.658 117.115,223.363 117.355,223.094 117.577 C 222.824 117.799,222.532 117.936,222.443 117.881 C 222.354 117.827,222.335 117.868,222.401 117.974 C 222.466 118.080,222.454 118.167,222.374 118.167 C 222.294 118.167,222.064 118.459,221.863 118.816 C 221.663 119.173,221.392 119.506,221.262 119.556 C 221.118 119.611,221.061 119.780,221.116 119.990 C 221.165 120.179,221.134 120.333,221.046 120.333 C 220.591 120.333,220.458 122.667,220.826 124.167 C 220.928 124.579,221.027 125.029,221.047 125.167 C 221.067 125.304,221.215 125.538,221.375 125.686 C 221.535 125.834,221.667 126.041,221.667 126.145 C 221.667 126.248,221.742 126.333,221.833 126.333 C 221.925 126.333,222.000 126.429,222.000 126.547 C 222.000 126.664,222.157 126.870,222.348 127.005 C 222.539 127.140,222.881 127.419,223.106 127.625 C 224.021 128.460,225.511 128.911,227.250 128.879 C 228.231 128.861,230.167 128.486,230.167 128.315 C 230.167 128.233,230.249 128.167,230.349 128.167 C 230.450 128.167,230.739 128.019,230.993 127.838 C 231.247 127.658,231.502 127.558,231.560 127.616 C 231.619 127.674,231.667 126.543,231.667 125.102 L 231.667 122.481 230.958 122.532 L 230.250 122.583 230.203 124.559 C 230.170 125.956,230.089 126.601,229.928 126.763 C 229.427 127.264,226.600 127.686,225.936 127.358 C 225.742 127.263,225.246 127.037,224.833 126.857 C 223.942 126.467,222.864 125.438,222.722 124.842 C 222.666 124.608,222.564 124.342,222.494 124.250 C 222.234 123.906,222.222 120.745,222.482 120.905 C 222.563 120.956,222.676 120.750,222.733 120.449 C 222.929 119.402,225.079 117.720,225.717 118.114 C 225.809 118.171,225.835 118.138,225.775 118.041 C 225.415 117.458,229.359 117.857,229.792 118.447 C 229.906 118.603,230.000 118.673,230.000 118.604 C 230.000 118.534,230.214 118.630,230.475 118.816 L 230.950 119.154 231.456 118.582 L 231.962 118.011 231.398 117.678 C 231.087 117.494,230.833 117.259,230.833 117.154 C 230.833 117.050,230.721 117.008,230.583 117.060 C 230.446 117.113,230.333 117.101,230.333 117.034 C 230.333 116.392,226.117 116.097,224.667 116.637 M238.550 116.441 C 238.345 116.524,238.217 128.002,238.415 128.518 C 238.488 128.710,239.271 128.742,242.918 128.703 L 247.333 128.656 247.333 128.173 C 247.333 127.194,247.150 127.149,243.398 127.202 L 240.000 127.250 240.000 125.208 L 240.000 123.167 243.167 123.167 L 246.333 123.167 246.333 122.601 C 246.333 121.844,246.284 121.833,242.903 121.833 L 240.000 121.833 240.000 119.833 L 240.000 117.833 243.542 117.833 L 247.083 117.833 247.132 117.083 L 247.180 116.333 242.965 116.346 C 240.647 116.354,238.660 116.396,238.550 116.441 M259.532 117.042 L 259.583 117.750 261.623 117.797 L 263.662 117.844 263.706 123.213 L 263.750 128.583 264.542 128.634 L 265.333 128.685 265.333 123.259 L 265.333 117.833 267.417 117.833 L 269.500 117.833 269.500 117.083 L 269.500 116.333 264.490 116.333 L 259.481 116.333 259.532 117.042 M274.667 122.486 C 274.667 126.678,274.723 128.658,274.844 128.698 C 274.941 128.730,275.316 128.729,275.677 128.694 L 276.333 128.632 276.333 125.899 L 276.333 123.167 279.913 123.167 L 283.492 123.167 283.538 125.875 L 283.583 128.583 284.167 128.676 C 285.390 128.871,285.333 129.163,285.333 122.694 C 285.333 118.290,285.283 116.846,285.125 116.676 C 284.956 116.494,284.961 116.477,285.151 116.585 C 285.308 116.674,285.346 116.655,285.266 116.526 C 285.201 116.420,284.823 116.333,284.426 116.333 C 283.518 116.333,283.505 116.376,283.502 119.375 L 283.500 121.667 279.917 121.667 L 276.333 121.667 276.333 119.264 C 276.333 116.327,276.335 116.333,275.399 116.333 L 274.667 116.333 274.667 122.486 M292.288 122.506 L 292.325 128.678 296.704 128.679 L 301.083 128.681 301.138 128.240 C 301.257 127.272,300.875 127.167,297.257 127.167 L 294.000 127.167 294.000 125.170 L 294.000 123.174 297.042 123.129 L 300.083 123.083 300.083 122.500 L 300.083 121.917 297.042 121.871 L 294.000 121.826 294.000 119.833 L 294.000 117.840 297.456 117.795 C 301.241 117.746,301.186 117.763,300.928 116.737 L 300.827 116.333 296.538 116.333 L 292.250 116.333 292.288 122.506 M307.167 122.537 L 307.167 128.765 307.958 128.674 L 308.750 128.583 308.833 126.750 L 308.917 124.917 310.000 124.869 C 312.111 124.777,312.838 124.983,313.402 125.835 C 313.674 126.247,313.995 126.643,314.115 126.717 C 314.235 126.790,314.333 126.942,314.333 127.055 C 314.333 127.168,314.479 127.365,314.658 127.494 C 314.836 127.622,314.944 127.789,314.898 127.864 C 314.852 127.939,314.893 128.000,314.990 128.000 C 315.087 128.000,315.167 128.104,315.167 128.232 C 315.167 128.532,315.588 128.707,316.393 128.742 C 317.094 128.772,317.425 128.408,316.942 128.138 C 316.791 128.053,316.667 127.883,316.667 127.760 C 316.667 127.636,316.554 127.492,316.417 127.440 C 316.279 127.387,316.167 127.187,316.167 126.995 C 316.167 126.804,316.092 126.693,316.000 126.750 C 315.908 126.807,315.833 126.734,315.833 126.588 C 315.833 126.442,315.721 126.280,315.583 126.227 C 315.446 126.174,315.333 126.056,315.333 125.964 C 315.333 125.873,315.102 125.506,314.819 125.149 C 314.379 124.593,314.349 124.500,314.613 124.500 C 314.782 124.500,315.012 124.352,315.125 124.171 C 315.238 123.991,315.433 123.882,315.559 123.930 C 315.701 123.985,315.906 123.789,316.102 123.409 C 316.275 123.075,316.491 122.658,316.581 122.484 C 316.672 122.309,316.795 122.167,316.855 122.167 C 317.035 122.167,317.016 119.530,316.835 119.417 C 316.742 119.360,316.667 119.131,316.667 118.907 C 316.667 118.683,316.587 118.500,316.490 118.500 C 316.393 118.500,316.360 118.425,316.417 118.333 C 316.473 118.242,316.441 118.167,316.344 118.167 C 316.248 118.167,315.969 117.942,315.724 117.667 C 315.479 117.392,315.213 117.167,315.133 117.167 C 315.054 117.167,314.792 117.038,314.552 116.881 C 313.916 116.464,313.873 116.459,310.375 116.380 L 307.167 116.308 307.167 122.537 M326.500 117.250 C 326.287 117.754,326.062 118.167,325.999 118.167 C 325.937 118.167,325.792 118.485,325.677 118.875 C 325.562 119.265,325.306 119.846,325.109 120.167 C 324.912 120.487,324.745 120.825,324.739 120.917 C 324.729 121.063,324.550 121.481,323.775 123.167 C 323.670 123.396,323.509 123.638,323.417 123.706 C 323.325 123.773,323.313 123.829,323.391 123.831 C 323.468 123.832,323.337 124.165,323.099 124.571 C 322.861 124.977,322.667 125.427,322.667 125.571 C 322.667 125.715,322.604 125.833,322.526 125.833 C 322.449 125.833,322.297 126.130,322.189 126.493 C 322.080 126.855,321.879 127.264,321.743 127.400 C 321.606 127.537,321.507 127.709,321.523 127.783 C 321.540 127.856,321.494 128.051,321.423 128.216 C 321.253 128.604,321.292 128.631,322.083 128.668 C 323.033 128.712,323.199 128.687,323.091 128.512 C 322.971 128.318,323.334 127.500,323.541 127.500 C 323.625 127.500,323.660 127.406,323.619 127.292 C 323.577 127.177,323.739 126.726,323.980 126.289 L 324.417 125.495 327.667 125.539 C 330.159 125.573,330.907 125.632,330.875 125.792 C 330.852 125.906,330.908 126.000,331.000 126.000 C 331.092 126.000,331.167 126.112,331.167 126.250 C 331.167 126.388,331.235 126.500,331.319 126.500 C 331.402 126.500,331.521 126.800,331.583 127.167 C 331.645 127.533,331.759 127.833,331.837 127.833 C 331.968 127.833,332.257 128.477,332.213 128.670 C 332.182 128.799,333.562 128.652,333.714 128.510 C 333.787 128.443,333.704 128.094,333.530 127.736 C 332.631 125.879,332.337 125.127,332.440 124.948 C 332.502 124.839,332.490 124.807,332.413 124.878 C 332.273 125.005,331.683 123.940,331.672 123.542 C 331.669 123.427,331.592 123.333,331.500 123.333 C 331.408 123.333,331.333 123.232,331.333 123.109 C 331.333 122.986,331.228 122.667,331.100 122.401 C 330.972 122.134,330.664 121.467,330.417 120.917 C 329.689 119.299,328.982 117.772,328.819 117.461 C 328.735 117.301,328.667 117.090,328.667 116.990 C 328.667 115.902,326.985 116.104,326.500 117.250 M339.375 116.440 C 339.165 116.528,339.049 127.999,339.252 128.529 C 339.311 128.683,339.571 128.734,340.086 128.693 L 340.833 128.633 340.833 126.817 L 340.833 125.000 342.458 124.980 C 343.352 124.969,344.187 124.975,344.314 124.993 C 345.711 125.188,348.667 123.381,348.667 122.332 C 348.667 122.230,348.730 122.186,348.807 122.234 C 348.980 122.341,349.007 119.649,348.835 119.417 C 348.768 119.325,348.665 119.063,348.607 118.833 C 348.477 118.324,347.208 116.955,346.990 117.089 C 346.904 117.143,346.833 117.094,346.833 116.982 C 346.833 116.870,346.792 116.819,346.741 116.870 C 346.691 116.920,346.295 116.827,345.862 116.662 C 345.094 116.370,339.962 116.195,339.375 116.440 M354.833 122.320 C 354.833 129.212,354.770 128.771,355.748 128.693 L 356.492 128.634 356.538 122.642 C 356.587 116.109,356.623 116.333,355.550 116.333 L 354.833 116.333 354.833 122.320 M365.356 116.590 C 365.047 116.724,364.658 116.833,364.491 116.833 C 364.323 116.833,364.133 116.920,364.067 117.026 C 363.987 117.157,364.023 117.173,364.183 117.076 C 364.311 116.998,364.178 117.175,363.885 117.469 C 363.593 117.764,363.307 118.154,363.249 118.336 C 363.191 118.518,363.085 118.667,363.014 118.667 C 362.942 118.667,362.880 119.192,362.877 119.833 C 362.874 120.475,362.933 121.000,363.008 121.000 C 363.083 121.000,363.188 121.138,363.242 121.307 C 363.383 121.753,364.665 122.620,365.381 122.754 C 365.773 122.828,365.958 122.939,365.888 123.060 C 365.829 123.164,365.833 123.202,365.898 123.144 C 365.963 123.086,366.294 123.108,366.633 123.193 C 366.973 123.277,367.342 123.366,367.454 123.391 C 367.565 123.415,367.709 123.487,367.773 123.551 C 367.837 123.614,368.059 123.667,368.268 123.667 C 368.476 123.667,368.694 123.743,368.752 123.836 C 368.809 123.929,368.922 123.965,369.002 123.916 C 369.358 123.695,370.333 124.855,370.333 125.500 C 370.333 126.233,369.596 127.167,369.016 127.167 C 368.824 127.167,368.667 127.242,368.667 127.333 C 368.667 127.431,368.111 127.500,367.333 127.500 C 366.584 127.500,366.000 127.429,366.000 127.339 C 366.000 127.250,365.900 127.216,365.778 127.262 C 365.655 127.309,365.008 127.070,364.340 126.731 L 363.125 126.113 362.816 126.515 C 362.380 127.083,362.773 127.806,363.667 128.080 C 363.896 128.150,364.158 128.267,364.250 128.339 C 364.438 128.487,365.675 128.755,365.893 128.695 C 365.971 128.673,366.121 128.721,366.226 128.801 C 366.532 129.035,368.167 129.057,368.167 128.827 C 368.167 128.700,368.373 128.654,368.747 128.698 C 369.067 128.735,369.349 128.703,369.375 128.625 C 369.401 128.548,369.587 128.473,369.790 128.457 C 369.992 128.442,370.196 128.332,370.241 128.212 C 370.287 128.093,370.516 127.922,370.751 127.833 C 371.526 127.538,372.347 124.333,371.647 124.333 C 371.543 124.333,371.500 124.186,371.548 124.000 C 371.596 123.816,371.573 123.705,371.496 123.753 C 371.419 123.800,371.257 123.705,371.136 123.542 C 370.853 123.158,370.008 122.611,369.596 122.545 C 369.420 122.517,369.177 122.411,369.055 122.310 C 368.933 122.209,368.833 122.175,368.833 122.235 C 368.833 122.296,368.665 122.252,368.458 122.139 C 368.252 122.026,367.933 121.914,367.750 121.890 C 366.363 121.711,365.393 121.289,364.792 120.605 C 364.340 120.090,364.136 119.191,364.526 119.433 C 364.640 119.503,364.673 119.479,364.607 119.372 C 364.476 119.159,364.819 118.333,365.039 118.333 C 365.122 118.333,365.303 118.221,365.440 118.083 C 365.578 117.946,365.929 117.824,366.220 117.813 C 367.604 117.760,369.057 117.852,369.357 118.012 C 369.539 118.110,369.852 118.221,370.052 118.260 C 370.252 118.299,370.439 118.402,370.469 118.489 C 370.546 118.723,371.000 118.504,371.000 118.232 C 371.000 118.104,371.075 118.000,371.167 118.000 C 371.404 118.000,371.373 117.407,371.125 117.202 C 370.192 116.433,366.597 116.051,365.356 116.590 M375.699 117.042 L 375.750 117.750 377.875 117.797 L 380.000 117.843 380.000 123.255 L 380.000 128.667 380.750 128.667 L 381.500 128.667 381.500 123.250 L 381.500 117.833 383.583 117.833 L 385.667 117.833 385.667 117.083 L 385.667 116.333 380.657 116.333 L 375.648 116.333 375.699 117.042 M122.083 118.000 C 122.234 118.244,122.541 118.204,122.402 117.958 C 122.308 117.792,122.329 117.792,122.509 117.958 C 122.632 118.073,122.855 118.167,123.005 118.167 C 123.352 118.167,124.833 119.142,124.833 119.371 C 124.833 119.466,124.971 119.666,125.139 119.814 C 126.035 120.603,126.307 124.667,125.464 124.667 C 125.373 124.667,125.337 124.769,125.385 124.895 C 125.532 125.277,124.508 126.334,123.578 126.759 C 122.635 127.191,121.915 127.264,119.208 127.204 L 117.500 127.167 117.500 122.500 L 117.500 117.833 119.740 117.833 C 121.054 117.833,122.023 117.902,122.083 118.000 M313.950 118.206 C 315.141 118.844,316.035 120.983,315.300 121.437 C 315.227 121.483,315.167 121.651,315.167 121.810 C 315.167 122.123,314.314 123.008,313.719 123.313 C 313.503 123.424,312.435 123.500,311.094 123.500 L 308.833 123.500 308.833 120.659 L 308.833 117.819 311.075 117.843 C 312.982 117.863,313.412 117.918,313.950 118.206 M345.657 118.144 C 346.156 118.309,346.644 118.588,346.741 118.764 C 346.837 118.940,346.963 119.121,347.019 119.167 C 347.330 119.419,347.556 121.279,347.296 121.440 C 347.225 121.484,347.167 121.631,347.167 121.768 C 347.167 122.145,346.097 123.167,345.701 123.167 C 345.510 123.167,345.307 123.242,345.250 123.333 C 345.190 123.431,344.248 123.500,342.990 123.500 L 340.833 123.500 340.833 120.667 L 340.833 117.833 342.792 117.838 C 344.224 117.841,344.994 117.924,345.657 118.144 M166.495 119.051 C 166.498 119.125,166.725 119.639,167.000 120.193 C 167.275 120.747,167.500 121.348,167.500 121.527 C 167.500 121.706,167.558 121.817,167.629 121.773 C 167.700 121.729,167.900 122.137,168.074 122.680 C 168.247 123.223,168.464 123.667,168.556 123.667 C 168.647 123.667,168.673 123.716,168.613 123.776 C 168.552 123.837,168.586 123.987,168.689 124.110 C 168.843 124.295,168.416 124.333,166.187 124.333 C 163.756 124.333,163.150 124.236,163.651 123.926 C 163.734 123.875,163.763 123.683,163.715 123.500 C 163.666 123.314,163.710 123.167,163.814 123.167 C 163.916 123.167,164.000 123.087,164.000 122.990 C 164.000 122.828,164.426 121.834,165.139 120.333 C 165.292 120.013,165.483 119.702,165.563 119.644 C 165.644 119.585,165.658 119.454,165.595 119.352 C 165.532 119.250,165.560 119.167,165.657 119.167 C 165.754 119.167,165.833 119.029,165.833 118.861 C 165.833 118.278,166.471 118.461,166.495 119.051 M210.664 119.042 C 210.666 119.202,210.742 119.333,210.833 119.333 C 210.925 119.333,211.000 119.521,211.000 119.750 C 211.000 119.979,211.075 120.167,211.167 120.167 C 211.258 120.167,211.325 120.223,211.315 120.292 C 211.279 120.543,211.543 121.167,211.686 121.167 C 211.767 121.167,211.818 121.223,211.798 121.292 C 211.763 121.416,212.138 122.326,212.594 123.222 C 212.725 123.481,212.833 123.794,212.833 123.916 C 212.833 124.039,212.927 124.177,213.042 124.223 C 213.156 124.269,211.994 124.313,210.458 124.320 C 208.863 124.328,207.667 124.268,207.667 124.180 C 207.667 123.966,208.224 122.928,208.375 122.861 C 208.444 122.831,208.500 122.655,208.500 122.470 C 208.500 122.286,208.607 121.936,208.738 121.692 C 209.192 120.846,210.000 119.056,210.000 118.895 C 210.000 118.806,210.090 118.644,210.199 118.534 C 210.431 118.302,210.660 118.552,210.664 119.042 M327.995 119.102 C 327.998 119.203,328.218 119.728,328.483 120.268 C 328.749 120.808,329.091 121.550,329.242 121.917 C 329.394 122.283,329.625 122.779,329.755 123.018 C 329.885 123.258,329.943 123.501,329.884 123.560 C 329.826 123.619,329.873 123.667,329.990 123.667 C 330.107 123.667,330.161 123.774,330.111 123.906 C 330.060 124.037,330.108 124.182,330.218 124.226 C 330.327 124.271,329.202 124.313,327.718 124.320 C 325.423 124.331,324.348 124.194,324.994 123.973 C 325.084 123.942,325.182 123.767,325.212 123.583 C 325.242 123.400,325.356 123.086,325.466 122.886 C 325.577 122.686,325.667 122.400,325.667 122.251 C 325.667 122.102,325.742 122.027,325.833 122.083 C 325.925 122.140,326.000 122.032,326.000 121.843 C 326.000 121.654,326.063 121.500,326.139 121.500 C 326.215 121.500,326.279 121.406,326.280 121.292 C 326.280 121.177,326.489 120.633,326.742 120.083 C 326.996 119.533,327.273 118.903,327.357 118.684 C 327.516 118.271,327.980 118.575,327.995 119.102 " stroke="none" fill="#fcfcfc" fill-rule="evenodd"></path><path id="path1" d="" stroke="none" fill="#100fcfc" fill-rule="evenodd"></path><path id="path2" d="" stroke="none" fill="#100fcfc" fill-rule="evenodd"></path><path id="path3" d="" stroke="none" fill="#100fcfc" fill-rule="evenodd"></path><path id="path4" d="" stroke="none" fill="#100fcfc" fill-rule="evenodd"></path></g></svg>